<?xml version="1.0" encoding="UTF-8" standalone="no"?>
<!-- Created with Inkscape (http://www.inkscape.org/) -->

<svg
   xmlns:dc="http://purl.org/dc/elements/1.1/"
   xmlns:cc="http://creativecommons.org/ns#"
   xmlns:rdf="http://www.w3.org/1999/02/22-rdf-syntax-ns#"
   xmlns:svg="http://www.w3.org/2000/svg"
   xmlns="http://www.w3.org/2000/svg"
   xmlns:sodipodi="http://sodipodi.sourceforge.net/DTD/sodipodi-0.dtd"
   xmlns:inkscape="http://www.inkscape.org/namespaces/inkscape"
   id="svg2"
   version="1.1"
   inkscape:version="0.91 r13725"
   xml:space="preserve"
   width="744.09497"
   height="1052.3625"
   viewBox="0 0 744.09497 1052.3625"
   sodipodi:docname="PapierMilli_lightgray.svg"><metadata
     id="metadata8"><rdf:RDF><cc:Work
         rdf:about=""><dc:format>image/svg+xml</dc:format><dc:type
           rdf:resource="http://purl.org/dc/dcmitype/StillImage" /><dc:title></dc:title></cc:Work></rdf:RDF></metadata><defs
     id="defs6" /><sodipodi:namedview
     pagecolor="#ffffff"
     bordercolor="#666666"
     borderopacity="1"
     objecttolerance="10"
     gridtolerance="10"
     guidetolerance="10"
     inkscape:pageopacity="0"
     inkscape:pageshadow="2"
     inkscape:window-width="832"
     inkscape:window-height="480"
     id="namedview4"
     showgrid="false"
     inkscape:zoom="0.22425732"
     inkscape:cx="372.04749"
     inkscape:cy="526.18127"
     inkscape:window-x="0"
     inkscape:window-y="0"
     inkscape:window-maximized="0"
     inkscape:current-layer="g10" /><g
     id="g10"
     inkscape:groupmode="layer"
     inkscape:label="PapierMilli_lightgray"
     transform="matrix(1.25,0,0,-1.25,0,1052.3625)"><g
       id="g12"
       transform="translate(42.52,104.284)"><g
         id="g14"><g
           id="g16"><g
             id="g18"><path
               d="M 0,0 510.24257,0 M 0,2.83484 l 510.24257,0 M 0,5.6697 l 510.24257,0 M 0,8.50455 l 510.24257,0 M 0,11.33939 l 510.24257,0 M 0,14.17424 l 510.24257,0 M 0,17.0091 l 510.24257,0 M 0,19.84393 l 510.24257,0 M 0,22.67879 l 510.24257,0 M 0,25.51364 l 510.24257,0 M 0,28.3485 l 510.24257,0 M 0,31.18333 l 510.24257,0 M 0,34.01819 l 510.24257,0 M 0,36.85304 l 510.24257,0 M 0,39.68788 l 510.24257,0 M 0,42.52274 l 510.24257,0 M 0,45.35759 l 510.24257,0 M 0,48.19244 l 510.24257,0 M 0,51.02728 l 510.24257,0 M 0,53.86214 l 510.24257,0 M 0,56.69699 l 510.24257,0 M 0,59.53183 l 510.24257,0 M 0,62.36668 l 510.24257,0 M 0,65.20154 l 510.24257,0 M 0,68.03639 l 510.24257,0 M 0,70.87123 l 510.24257,0 M 0,73.70609 l 510.24257,0 M 0,76.54094 l 510.24257,0 M 0,79.37578 l 510.24257,0 M 0,82.21063 l 510.24257,0 M 0,85.04549 l 510.24257,0 M 0,87.88034 l 510.24257,0 M 0,90.71518 l 510.24257,0 M 0,93.55003 l 510.24257,0 M 0,96.38489 l 510.24257,0 M 0,99.21973 l 510.24257,0 M 0,102.05458 l 510.24257,0 M 0,104.88943 l 510.24257,0 M 0,107.72429 l 510.24257,0 M 0,110.55913 l 510.24257,0 M 0,113.39398 l 510.24257,0 M 0,116.22884 l 510.24257,0 M 0,119.06367 l 510.24257,0 M 0,121.89853 l 510.24257,0 M 0,124.73338 l 510.24257,0 M 0,127.56824 l 510.24257,0 M 0,130.40308 l 510.24257,0 M 0,133.23793 l 510.24257,0 M 0,136.07278 l 510.24257,0 M 0,138.90762 l 510.24257,0 M 0,141.74248 l 510.24257,0 M 0,144.57733 l 510.24257,0 M 0,147.41219 l 510.24257,0 M 0,150.24702 l 510.24257,0 M 0,153.08188 l 510.24257,0 M 0,155.91673 l 510.24257,0 M 0,158.75157 l 510.24257,0 M 0,161.58643 l 510.24257,0 M 0,164.42128 l 510.24257,0 M 0,167.25612 l 510.24257,0 M 0,170.09097 l 510.24257,0 M 0,172.92583 l 510.24257,0 M 0,175.76068 l 510.24257,0 M 0,178.59552 l 510.24257,0 M 0,181.43037 l 510.24257,0 M 0,184.26523 l 510.24257,0 M 0,187.10007 l 510.24257,0 M 0,189.93492 l 510.24257,0 M 0,192.76978 l 510.24257,0 M 0,195.60463 l 510.24257,0 M 0,198.43947 l 510.24257,0 M 0,201.27432 l 510.24257,0 M 0,204.10918 l 510.24257,0 M 0,206.94402 l 510.24257,0 M 0,209.77887 l 510.24257,0 M 0,212.61372 l 510.24257,0 M 0,215.44858 l 510.24257,0 M 0,218.28342 l 510.24257,0 M 0,221.11827 l 510.24257,0 M 0,223.95313 l 510.24257,0 M 0,226.78796 l 510.24257,0 M 0,229.62282 l 510.24257,0 M 0,232.45767 l 510.24257,0 M 0,235.29253 l 510.24257,0 M 0,238.12737 l 510.24257,0 M 0,240.96222 l 510.24257,0 M 0,243.79707 l 510.24257,0 M 0,246.63191 l 510.24257,0 M 0,249.46677 l 510.24257,0 M 0,252.30162 l 510.24257,0 M 0,255.13647 l 510.24257,0 M 0,257.97131 l 510.24257,0 M 0,260.80617 l 510.24257,0 M 0,263.64102 l 510.24257,0 M 0,266.47586 l 510.24257,0 M 0,269.31071 l 510.24257,0 M 0,272.14557 l 510.24257,0 M 0,274.98042 l 510.24257,0 M 0,277.81526 l 510.24257,0 M 0,280.65012 l 510.24257,0 M 0,283.48497 l 510.24257,0 M 0,286.31981 l 510.24257,0 M 0,289.15466 l 510.24257,0 M 0,291.98952 l 510.24257,0 M 0,294.82437 l 510.24257,0 M 0,297.65921 l 510.24257,0 M 0,300.49406 l 510.24257,0 M 0,303.32892 l 510.24257,0 M 0,306.16376 l 510.24257,0 M 0,308.99861 l 510.24257,0 M 0,311.83347 l 510.24257,0 M 0,314.66832 l 510.24257,0 M 0,317.50316 l 510.24257,0 M 0,320.33801 l 510.24257,0 M 0,323.17287 l 510.24257,0 M 0,326.0077 l 510.24257,0 M 0,328.84256 l 510.24257,0 M 0,331.67741 l 510.24257,0 M 0,334.51225 l 510.24257,0 M 0,337.3471 l 510.24257,0 M 0,340.18196 l 510.24257,0 M 0,343.01682 l 510.24257,0 M 0,345.85165 l 510.24257,0 M 0,348.68651 l 510.24257,0 M 0,351.52136 l 510.24257,0 M 0,354.3562 l 510.24257,0 M 0,357.19106 l 510.24257,0 M 0,360.02591 l 510.24257,0 M 0,362.86076 l 510.24257,0 M 0,365.6956 l 510.24257,0 M 0,368.53046 l 510.24257,0 M 0,371.36531 l 510.24257,0 M 0,374.20015 l 510.24257,0 M 0,377.035 l 510.24257,0 M 0,379.86986 l 510.24257,0 M 0,382.70471 l 510.24257,0 M 0,385.53955 l 510.24257,0 M 0,388.3744 l 510.24257,0 M 0,391.20926 l 510.24257,0 M 0,394.0441 l 510.24257,0 M 0,396.87895 l 510.24257,0 M 0,399.7138 l 510.24257,0 M 0,402.54866 l 510.24257,0 M 0,405.3835 l 510.24257,0 M 0,408.21835 l 510.24257,0 M 0,411.0532 l 510.24257,0 M 0,413.88805 l 510.24257,0 M 0,416.7229 l 510.24257,0 M 0,419.55775 l 510.24257,0 M 0,422.39261 l 510.24257,0 M 0,425.22745 l 510.24257,0 M 0,428.0623 l 510.24257,0 M 0,430.89716 l 510.24257,0 M 0,433.732 l 510.24257,0 M 0,436.56685 l 510.24257,0 M 0,439.4017 l 510.24257,0 M 0,442.23656 l 510.24257,0 M 0,445.0714 l 510.24257,0 M 0,447.90625 l 510.24257,0 M 0,450.7411 l 510.24257,0 M 0,453.57594 l 510.24257,0 M 0,456.4108 l 510.24257,0 M 0,459.24565 l 510.24257,0 M 0,462.0805 l 510.24257,0 M 0,464.91534 l 510.24257,0 M 0,467.7502 l 510.24257,0 M 0,470.58505 l 510.24257,0 M 0,473.41989 l 510.24257,0 M 0,476.25475 l 510.24257,0 M 0,479.0896 l 510.24257,0 M 0,481.92444 l 510.24257,0 M 0,484.7593 l 510.24257,0 M 0,487.59415 l 510.24257,0 M 0,490.429 l 510.24257,0 M 0,493.26384 l 510.24257,0 M 0,496.0987 l 510.24257,0 M 0,498.93355 l 510.24257,0 M 0,501.76839 l 510.24257,0 M 0,504.60324 l 510.24257,0 M 0,507.4381 l 510.24257,0 M 0,510.27295 l 510.24257,0 M 0,513.10779 l 510.24257,0 M 0,515.94264 l 510.24257,0 M 0,518.7775 l 510.24257,0 M 0,521.61234 l 510.24257,0 M 0,524.44719 l 510.24257,0 M 0,527.28204 l 510.24257,0 M 0,530.1169 l 510.24257,0 M 0,532.95174 l 510.24257,0 M 0,535.78659 l 510.24257,0 M 0,538.62144 l 510.24257,0 M 0,541.45628 l 510.24257,0 M 0,544.29114 l 510.24257,0 M 0,547.12599 l 510.24257,0 M 0,549.96085 l 510.24257,0 M 0,552.79568 l 510.24257,0 M 0,555.63054 l 510.24257,0 M 0,558.4654 l 510.24257,0 M 0,561.30023 l 510.24257,0 M 0,564.13509 l 510.24257,0 M 0,566.96994 l 510.24257,0 M 0,569.8048 l 510.24257,0 M 0,572.63963 l 510.24257,0 M 0,575.47449 l 510.24257,0 M 0,578.30934 l 510.24257,0 M 0,581.14418 l 510.24257,0 M 0,583.97903 l 510.24257,0 M 0,586.81389 l 510.24257,0 M 0,589.64874 l 510.24257,0 M 0,592.48358 l 510.24257,0 M 0,595.31844 l 510.24257,0 M 0,598.15329 l 510.24257,0 M 0,600.98813 l 510.24257,0 M 0,603.82298 l 510.24257,0 M 0,606.65784 l 510.24257,0 M 0,609.49269 l 510.24257,0 M 0,612.32753 l 510.24257,0 M 0,615.16238 l 510.24257,0 M 0,617.99724 l 510.24257,0 M 0,620.83208 l 510.24257,0 M 0,623.66693 l 510.24257,0 M 0,626.50179 l 510.24257,0 M 0,629.33664 l 510.24257,0 M 0,632.17148 l 510.24257,0 M 0,635.00633 l 510.24257,0 M 0,637.84119 l 510.24257,0 M 0,640.67603 l 510.24257,0 M 0,643.51088 l 510.24257,0 M 0,646.34573 l 510.24257,0 M 0,649.18057 l 510.24257,0 M 0,652.01543 l 510.24257,0 M 0,654.85028 l 510.24257,0 M 0,657.68513 l 510.24257,0 M 0,660.51997 l 510.24257,0 M 0,663.35483 l 510.24257,0 M 0,666.18968 l 510.24257,0 M 0,669.02452 l 510.24257,0 M 0,671.85938 l 510.24257,0 M 0,674.69423 l 510.24257,0 M 0,677.52908 l 510.24257,0 M 0,680.36392 l 510.24257,0 M 0,683.19878 l 510.24257,0 M 0,686.03363 l 510.24257,0 M 0,688.86847 l 510.24257,0 M 0,691.70332 l 510.24257,0 M 0,694.53818 l 510.24257,0 M 0,697.37303 l 510.24257,0 M 0,700.20787 l 510.24257,0 M 0,703.04272 l 510.24257,0 M 0,705.87758 l 510.24257,0 M 0,0 0,708.67024 M 2.83484,0 l 0,708.67024 M 5.6697,0 l 0,708.67024 M 8.50455,0 l 0,708.67024 M 11.33939,0 l 0,708.67024 M 14.17424,0 l 0,708.67024 M 17.0091,0 l 0,708.67024 M 19.84393,0 l 0,708.67024 M 22.67879,0 l 0,708.67024 M 25.51364,0 l 0,708.67024 M 28.3485,0 l 0,708.67024 M 31.18333,0 l 0,708.67024 M 34.01819,0 l 0,708.67024 M 36.85304,0 l 0,708.67024 M 39.68788,0 l 0,708.67024 M 42.52274,0 l 0,708.67024 M 45.35759,0 l 0,708.67024 M 48.19244,0 l 0,708.67024 M 51.02728,0 l 0,708.67024 M 53.86214,0 l 0,708.67024 M 56.69699,0 l 0,708.67024 M 59.53183,0 l 0,708.67024 M 62.36668,0 l 0,708.67024 M 65.20154,0 l 0,708.67024 M 68.03639,0 l 0,708.67024 M 70.87123,0 l 0,708.67024 M 73.70609,0 l 0,708.67024 M 76.54094,0 l 0,708.67024 M 79.37578,0 l 0,708.67024 M 82.21063,0 l 0,708.67024 M 85.04549,0 l 0,708.67024 M 87.88034,0 l 0,708.67024 M 90.71518,0 l 0,708.67024 M 93.55003,0 l 0,708.67024 M 96.38489,0 l 0,708.67024 M 99.21973,0 l 0,708.67024 M 102.05458,0 l 0,708.67024 M 104.88943,0 l 0,708.67024 M 107.72429,0 l 0,708.67024 M 110.55913,0 l 0,708.67024 M 113.39398,0 l 0,708.67024 M 116.22884,0 l 0,708.67024 M 119.06367,0 l 0,708.67024 M 121.89853,0 l 0,708.67024 M 124.73338,0 l 0,708.67024 M 127.56824,0 l 0,708.67024 M 130.40308,0 l 0,708.67024 M 133.23793,0 l 0,708.67024 M 136.07278,0 l 0,708.67024 M 138.90762,0 l 0,708.67024 M 141.74248,0 l 0,708.67024 M 144.57733,0 l 0,708.67024 M 147.41219,0 l 0,708.67024 M 150.24702,0 l 0,708.67024 M 153.08188,0 l 0,708.67024 M 155.91673,0 l 0,708.67024 M 158.75157,0 l 0,708.67024 M 161.58643,0 l 0,708.67024 M 164.42128,0 l 0,708.67024 M 167.25612,0 l 0,708.67024 M 170.09097,0 l 0,708.67024 M 172.92583,0 l 0,708.67024 M 175.76068,0 l 0,708.67024 M 178.59552,0 l 0,708.67024 M 181.43037,0 l 0,708.67024 M 184.26523,0 l 0,708.67024 M 187.10007,0 l 0,708.67024 M 189.93492,0 l 0,708.67024 M 192.76978,0 l 0,708.67024 M 195.60463,0 l 0,708.67024 M 198.43947,0 l 0,708.67024 M 201.27432,0 l 0,708.67024 M 204.10918,0 l 0,708.67024 M 206.94402,0 l 0,708.67024 M 209.77887,0 l 0,708.67024 M 212.61372,0 l 0,708.67024 M 215.44858,0 l 0,708.67024 M 218.28342,0 l 0,708.67024 M 221.11827,0 l 0,708.67024 M 223.95313,0 l 0,708.67024 M 226.78796,0 l 0,708.67024 M 229.62282,0 l 0,708.67024 M 232.45767,0 l 0,708.67024 M 235.29253,0 l 0,708.67024 M 238.12737,0 l 0,708.67024 M 240.96222,0 l 0,708.67024 M 243.79707,0 l 0,708.67024 M 246.63191,0 l 0,708.67024 M 249.46677,0 l 0,708.67024 M 252.30162,0 l 0,708.67024 M 255.13647,0 l 0,708.67024 M 257.97131,0 l 0,708.67024 M 260.80617,0 l 0,708.67024 M 263.64102,0 l 0,708.67024 M 266.47586,0 l 0,708.67024 M 269.31071,0 l 0,708.67024 M 272.14557,0 l 0,708.67024 M 274.98042,0 l 0,708.67024 M 277.81526,0 l 0,708.67024 M 280.65012,0 l 0,708.67024 M 283.48497,0 l 0,708.67024 M 286.31981,0 l 0,708.67024 M 289.15466,0 l 0,708.67024 M 291.98952,0 l 0,708.67024 M 294.82437,0 l 0,708.67024 M 297.65921,0 l 0,708.67024 M 300.49406,0 l 0,708.67024 M 303.32892,0 l 0,708.67024 M 306.16376,0 l 0,708.67024 M 308.99861,0 l 0,708.67024 M 311.83347,0 l 0,708.67024 M 314.66832,0 l 0,708.67024 M 317.50316,0 l 0,708.67024 M 320.33801,0 l 0,708.67024 M 323.17287,0 l 0,708.67024 M 326.0077,0 l 0,708.67024 M 328.84256,0 l 0,708.67024 M 331.67741,0 l 0,708.67024 M 334.51225,0 l 0,708.67024 M 337.3471,0 l 0,708.67024 M 340.18196,0 l 0,708.67024 M 343.01682,0 l 0,708.67024 M 345.85165,0 l 0,708.67024 M 348.68651,0 l 0,708.67024 M 351.52136,0 l 0,708.67024 M 354.3562,0 l 0,708.67024 M 357.19106,0 l 0,708.67024 M 360.02591,0 l 0,708.67024 M 362.86076,0 l 0,708.67024 M 365.6956,0 l 0,708.67024 M 368.53046,0 l 0,708.67024 M 371.36531,0 l 0,708.67024 M 374.20015,0 l 0,708.67024 M 377.035,0 l 0,708.67024 M 379.86986,0 l 0,708.67024 M 382.70471,0 l 0,708.67024 M 385.53955,0 l 0,708.67024 M 388.3744,0 l 0,708.67024 M 391.20926,0 l 0,708.67024 M 394.0441,0 l 0,708.67024 M 396.87895,0 l 0,708.67024 M 399.7138,0 l 0,708.67024 M 402.54866,0 l 0,708.67024 M 405.3835,0 l 0,708.67024 M 408.21835,0 l 0,708.67024 M 411.0532,0 l 0,708.67024 M 413.88805,0 l 0,708.67024 M 416.7229,0 l 0,708.67024 M 419.55775,0 l 0,708.67024 M 422.39261,0 l 0,708.67024 M 425.22745,0 l 0,708.67024 M 428.0623,0 l 0,708.67024 M 430.89716,0 l 0,708.67024 M 433.732,0 l 0,708.67024 M 436.56685,0 l 0,708.67024 M 439.4017,0 l 0,708.67024 M 442.23656,0 l 0,708.67024 M 445.0714,0 l 0,708.67024 M 447.90625,0 l 0,708.67024 M 450.7411,0 l 0,708.67024 M 453.57594,0 l 0,708.67024 M 456.4108,0 l 0,708.67024 M 459.24565,0 l 0,708.67024 M 462.0805,0 l 0,708.67024 M 464.91534,0 l 0,708.67024 M 467.7502,0 l 0,708.67024 M 470.58505,0 l 0,708.67024 M 473.41989,0 l 0,708.67024 M 476.25475,0 l 0,708.67024 M 479.0896,0 l 0,708.67024 M 481.92444,0 l 0,708.67024 M 484.7593,0 l 0,708.67024 M 487.59415,0 l 0,708.67024 M 490.429,0 l 0,708.67024 M 493.26384,0 l 0,708.67024 M 496.0987,0 l 0,708.67024 M 498.93355,0 l 0,708.67024 M 501.76839,0 l 0,708.67024 M 504.60324,0 l 0,708.67024 M 507.4381,0 l 0,708.67024"
               style="fill:none;stroke:#bfbfbf;stroke-width:0.09962;stroke-linecap:butt;stroke-linejoin:miter;stroke-miterlimit:10;stroke-dasharray:none;stroke-opacity:1"
               id="path20"
               inkscape:connector-curvature="0" /></g><g
             id="g22"><path
               d="M 0,0 510.24257,0 M 0,14.17339 l 510.24257,0 M 0,28.34679 l 510.24257,0 M 0,42.52019 l 510.24257,0 M 0,56.69359 l 510.24257,0 M 0,70.86697 l 510.24257,0 M 0,85.04037 l 510.24257,0 M 0,99.21378 l 510.24257,0 M 0,113.38718 l 510.24257,0 M 0,127.56056 l 510.24257,0 M 0,141.73396 l 510.24257,0 M 0,155.90736 l 510.24257,0 M 0,170.08076 l 510.24257,0 M 0,184.25415 l 510.24257,0 M 0,198.42755 l 510.24257,0 M 0,212.60095 l 510.24257,0 M 0,226.77435 l 510.24257,0 M 0,240.94775 l 510.24257,0 M 0,255.12114 l 510.24257,0 M 0,269.29454 l 510.24257,0 M 0,283.46794 l 510.24257,0 M 0,297.64134 l 510.24257,0 M 0,311.81473 l 510.24257,0 M 0,325.98813 l 510.24257,0 M 0,340.16153 l 510.24257,0 M 0,354.33493 l 510.24257,0 M 0,368.50832 l 510.24257,0 M 0,382.68172 l 510.24257,0 M 0,396.85512 l 510.24257,0 M 0,411.02852 l 510.24257,0 M 0,425.20192 l 510.24257,0 M 0,439.3753 l 510.24257,0 M 0,453.5487 l 510.24257,0 M 0,467.7221 l 510.24257,0 M 0,481.89551 l 510.24257,0 M 0,496.0689 l 510.24257,0 M 0,510.2423 l 510.24257,0 M 0,524.4157 l 510.24257,0 M 0,538.5891 l 510.24257,0 M 0,552.76248 l 510.24257,0 M 0,566.93588 l 510.24257,0 M 0,581.10928 l 510.24257,0 M 0,595.28268 l 510.24257,0 M 0,609.45607 l 510.24257,0 M 0,623.62947 l 510.24257,0 M 0,637.80287 l 510.24257,0 M 0,651.97627 l 510.24257,0 M 0,666.14967 l 510.24257,0 M 0,680.32306 l 510.24257,0 M 0,694.49646 l 510.24257,0 M 0,708.66986 l 510.24257,0 M 0,0 0,708.67024 M 14.17339,0 l 0,708.67024 M 28.34679,0 l 0,708.67024 M 42.52019,0 l 0,708.67024 M 56.69359,0 l 0,708.67024 M 70.86697,0 l 0,708.67024 M 85.04037,0 l 0,708.67024 M 99.21378,0 l 0,708.67024 M 113.38718,0 l 0,708.67024 M 127.56056,0 l 0,708.67024 M 141.73396,0 l 0,708.67024 M 155.90736,0 l 0,708.67024 M 170.08076,0 l 0,708.67024 M 184.25415,0 l 0,708.67024 M 198.42755,0 l 0,708.67024 M 212.60095,0 l 0,708.67024 M 226.77435,0 l 0,708.67024 M 240.94775,0 l 0,708.67024 M 255.12114,0 l 0,708.67024 M 269.29454,0 l 0,708.67024 M 283.46794,0 l 0,708.67024 M 297.64134,0 l 0,708.67024 M 311.81473,0 l 0,708.67024 M 325.98813,0 l 0,708.67024 M 340.16153,0 l 0,708.67024 M 354.33493,0 l 0,708.67024 M 368.50832,0 l 0,708.67024 M 382.68172,0 l 0,708.67024 M 396.85512,0 l 0,708.67024 M 411.02852,0 l 0,708.67024 M 425.20192,0 l 0,708.67024 M 439.3753,0 l 0,708.67024 M 453.5487,0 l 0,708.67024 M 467.7221,0 l 0,708.67024 M 481.89551,0 l 0,708.67024 M 496.0689,0 l 0,708.67024 M 510.2423,0 l 0,708.67024"
               style="fill:none;stroke:#bfbfbf;stroke-width:0.3985;stroke-linecap:butt;stroke-linejoin:miter;stroke-miterlimit:10;stroke-dasharray:none;stroke-opacity:1"
               id="path24"
               inkscape:connector-curvature="0" /></g><g
             id="g26"><path
               d="M 0,0 510.24257,0 M 0,28.3468 l 510.24257,0 M 0,56.69362 l 510.24257,0 M 0,85.04042 l 510.24257,0 M 0,113.38724 l 510.24257,0 M 0,141.73404 l 510.24257,0 M 0,170.08086 l 510.24257,0 M 0,198.42766 l 510.24257,0 M 0,226.77448 l 510.24257,0 M 0,255.12128 l 510.24257,0 M 0,283.4681 l 510.24257,0 M 0,311.8149 l 510.24257,0 M 0,340.16171 l 510.24257,0 M 0,368.50851 l 510.24257,0 M 0,396.85533 l 510.24257,0 M 0,425.20213 l 510.24257,0 M 0,453.54895 l 510.24257,0 M 0,481.89577 l 510.24257,0 M 0,510.24257 l 510.24257,0 M 0,538.58939 l 510.24257,0 M 0,566.93619 l 510.24257,0 M 0,595.283 l 510.24257,0 M 0,623.6298 l 510.24257,0 M 0,651.97662 l 510.24257,0 M 0,680.32343 l 510.24257,0 M 0,708.66028 l 510.24257,0 M 0,0 0,708.67024 M 28.3468,0 l 0,708.67024 M 56.69362,0 l 0,708.67024 M 85.04042,0 l 0,708.67024 M 113.38724,0 l 0,708.67024 M 141.73404,0 l 0,708.67024 M 170.08086,0 l 0,708.67024 M 198.42766,0 l 0,708.67024 M 226.77448,0 l 0,708.67024 M 255.12128,0 l 0,708.67024 M 283.4681,0 l 0,708.67024 M 311.8149,0 l 0,708.67024 M 340.16171,0 l 0,708.67024 M 368.50851,0 l 0,708.67024 M 396.85533,0 l 0,708.67024 M 425.20213,0 l 0,708.67024 M 453.54895,0 l 0,708.67024 M 481.89577,0 l 0,708.67024 M 510.2326,0 l 0,708.67024"
               style="fill:none;stroke:#bfbfbf;stroke-width:0.79701;stroke-linecap:butt;stroke-linejoin:miter;stroke-miterlimit:10;stroke-dasharray:none;stroke-opacity:1"
               id="path28"
               inkscape:connector-curvature="0" /></g><g
             id="g30"><path
               d="M 0,0 510.24257,0 M 0,141.7341 l 510.24257,0 M 0,283.46822 l 510.24257,0 M 0,425.20232 l 510.24257,0 M 0,566.93643 l 510.24257,0 M 0,708.66058 l 510.24257,0 M 0,0 0,708.67024 M 141.7341,0 l 0,708.67024 M 283.46822,0 l 0,708.67024 M 425.20232,0 l 0,708.67024"
               style="fill:none;stroke:#bfbfbf;stroke-width:1.19553006;stroke-linecap:butt;stroke-linejoin:miter;stroke-miterlimit:10;stroke-dasharray:none;stroke-opacity:1"
               id="path32"
               inkscape:connector-curvature="0" /></g></g></g></g></g></svg>